<?xml version="1.0" standalone="no"?>
<!DOCTYPE svg PUBLIC "-//W3C//DTD SVG 20010904//EN"
 "http://www.w3.org/TR/2001/REC-SVG-20010904/DTD/svg10.dtd">
<svg version="1.0" xmlns="http://www.w3.org/2000/svg"
 width="360.000000pt" height="360.000000pt" viewBox="0 0 360.000000 360.000000"
 preserveAspectRatio="xMidYMid meet">

<g transform="translate(0.000000,360.000000) scale(0.100000,-0.100000)"
fill="#000000" stroke="none">
<path d="M1715 3110 c-166 -26 -286 -89 -401 -211 -67 -72 -101 -126 -137
-224 -39 -106 -49 -267 -22 -378 59 -242 242 -428 485 -493 85 -22 234 -22
320 -1 218 56 397 219 469 426 112 324 -36 679 -341 821 -115 53 -265 78 -373
60z"/>
<path d="M1635 1699 c-112 -21 -194 -43 -265 -71 -269 -105 -485 -294 -628
-549 -88 -156 -151 -403 -143 -561 1 -17 65 -18 1207 -18 l1207 0 -7 83 c-45
544 -418 978 -945 1098 -100 23 -348 34 -426 18z"/>
</g>
</svg>
